# xmcd
#
# Track frame offsets:
#  150
#  24369
#  40293
#  61382
#  78187
#  94457
#  116594
#  133478
#  153834
#  163892
#  179777
#  201233
#
# Disc length: 2999 seconds
#
# Revision: 0
# Processed by: cddbd v1.5.1PL2 Copyright (c) Steve Scherf et al.
# Submitted via: Collectorz.com_Music_Collector 6.10
#
DISCID=aa0bb50c
DTITLE=Johnson, Miller and Dermody - Deceiving Blues
DYEAR=2006
DGENRE=Blues -  Blues Acoustic
TTITLE0=Mother Earth
TTITLE1=Springtime Blues
TTITLE2=Stewball
TTITLE3=Some Of These Days
TTITLE4=Witching Hour Blues
TTITLE5=Deceiving Blues
TTITLE6=Soul Of A Man
TTITLE7=Bull Doze Blues
TTITLE8=Polly Put The Kettle On
TTITLE9=Trouble In Mind
TTITLE10=Depot Blues
TTITLE11=I Will Do My Last Singing
EXTD=
EXTT0=
EXTT1=
EXTT2=
EXTT3=
EXTT4=
EXTT5=
EXTT6=
EXTT7=
EXTT8=
EXTT9=
EXTT10=
EXTT11=
PLAYORDER=
